<svg width="24" height="24" viewBox="0 0 24 24" fill="none" xmlns="http://www.w3.org/2000/svg">
<path d="M3 3C2.73478 3 2.48043 3.10536 2.29289 3.29289C2.10536 3.48043 2 3.73478 2 4V9.5957C2 10.1097 2.38939 10.5388 2.90039 10.5898L17 12L2.90039 13.4102C2.38939 13.4612 2 13.8903 2 14.4043V20C2 20.2652 2.10536 20.5196 2.29289 20.7071C2.48043 20.8946 2.73478 21 3 21C3.19092 21.0004 3.37797 20.9462 3.53906 20.8438C3.53971 20.8431 3.54037 20.8424 3.54102 20.8418L21.3398 12.9434L21.3379 12.9395C21.5315 12.87 21.6989 12.7425 21.8174 12.5743C21.9359 12.4062 21.9996 12.2057 22 12C21.9996 11.7943 21.9359 11.5938 21.8174 11.4257C21.6989 11.2575 21.5315 11.13 21.3379 11.0605L21.3398 11.0566L3.52734 3.15234C3.36921 3.05337 3.18655 3.0006 3 3Z" fill="#0038FF"/>
</svg>
