<svg width="24" height="24" viewBox="0 0 24 24" fill="none" xmlns="http://www.w3.org/2000/svg">
<path d="M20 3H3.99998C2.89998 3 2.00998 3.9 2.00998 5L2.00098 20.584C2.00098 21.475 3.07798 21.922 3.70798 21.292L5.99998 19H20C21.1 19 22 18.1 22 17V5C22 3.9 21.1 3 20 3ZM8.99998 11C8.99998 11.552 8.55198 12 7.99998 12C7.44798 12 6.99998 11.552 6.99998 11C6.99998 10.448 7.44798 10 7.99998 10C8.55198 10 8.99998 10.448 8.99998 11ZM13 11C13 11.552 12.552 12 12 12C11.448 12 11 11.552 11 11C11 10.448 11.448 10 12 10C12.552 10 13 10.448 13 11ZM17 11C17 11.552 16.552 12 16 12C15.448 12 15 11.552 15 11C15 10.448 15.448 10 16 10C16.552 10 17 10.448 17 11Z" fill="#0038FF"/>
</svg>
